# xmcd
#
# Track frame offsets:
#	183
#	15108
#	27183
#	39633
#	53208
#	61758
#	74283
#	88810
#	93283
#	107508
#	119208
#	131583
#	141483
#	159408
#	173958
#	186408
#	197133
#	212883
#	235683
#	244983
#	262983
#	283308
#	298533
#	322758
#	330708
#
# Disc length: 4585 seconds
#
# Revision: 3
# Processed by: cddbd v1.5.2PL0 Copyright (c) Steve Scherf et al.
# Submitted via: EasyCDDAExtractor 11.5.3.1
#
DISCID=7411e719
DTITLE=Antonio Vivaldi - Mad About Vivaldi
DYEAR=2003
DGENRE=
TTITLE0="Spring" - Allegro
TTITLE1="Spring" - Largo
TTITLE2="Summer" - Presto
TTITLE3="Autumn" - Allegro
TTITLE4="Winter" - Largo
TTITLE5="Winter" - Allegro
TTITLE6=Allegro
TTITLE7=Largo
TTITLE8=(Allegro)
TTITLE9=Allegro
TTITLE10=Largo
TTITLE11=(Allegro)
TTITLE12=Allegro
TTITLE13=(no temp indication)
TTITLE14=Allegro
TTITLE15=Gloria in excelsis Deo
TTITLE16=(Allgro Giusto)
TTITLE17=Largo
TTITLE18=Allegro
TTITLE19=Allegro molto
TTITLE20=Andante
TTITLE21=Allegro
TTITLE22=Allegro molto
TTITLE23=Andante molto
TTITLE24=Allegro
EXTD=
EXTT0=
EXTT1=
EXTT2=
EXTT3=
EXTT4=
EXTT5=
EXTT6=
EXTT7=
EXTT8=
EXTT9=
EXTT10=
EXTT11=
EXTT12=
EXTT13=
EXTT14=
EXTT15=
EXTT16=
EXTT17=
EXTT18=
EXTT19=
EXTT20=
EXTT21=
EXTT22=
EXTT23=
EXTT24=
PLAYORDER=
